<svg width="38" height="38" viewBox="0 0 38 38" fill="none" xmlns="http://www.w3.org/2000/svg">
<g filter="url(#filter0_d_127_3913)">
<path d="M19 34C27.2843 34 34 27.2843 34 19C34 10.7157 27.2843 4 19 4C10.7157 4 4 10.7157 4 19C4 27.2843 10.7157 34 19 34Z" fill="white"/>
</g>
<g clip-path="url(#clip0_127_3913)">
<path d="M19 24.75C22.1756 24.75 24.75 22.1756 24.75 19C24.75 15.8244 22.1756 13.25 19 13.25C15.8244 13.25 13.25 15.8244 13.25 19C13.25 22.1756 15.8244 24.75 19 24.75Z" fill="#3F96D0"/>
<path d="M21.725 13.925C21.975 14.725 22.15 15.575 22.175 16.45C22.325 19.925 19.975 23 16.925 24.3501C17.575 24.6001 18.275 24.7501 19 24.7501C22.175 24.7501 24.75 22.1751 24.75 19.0001C24.75 16.8 23.525 14.9 21.725 13.925ZM19 9C18.525 9 18.15 9.37499 18.15 9.85V11.25C18.15 11.725 18.525 12.1 19 12.1C19.475 12.1 19.85 11.725 19.85 11.25V9.85C19.85 9.37499 19.475 9 19 9ZM19 25.9C18.525 25.9 18.15 26.275 18.15 26.75V28.15C18.15 28.6251 18.525 29 19 29C19.475 29 19.85 28.6251 19.85 28.15V26.75C19.85 26.275 19.475 25.9 19 25.9ZM29 19C29 18.525 28.625 18.15 28.15 18.15H26.75C26.275 18.15 25.9 18.525 25.9 19C25.9 19.475 26.275 19.85 26.75 19.85H28.15C28.625 19.85 29 19.475 29 19ZM12.1 19C12.1 18.525 11.725 18.15 11.25 18.15H9.85C9.37499 18.15 9 18.525 9 19C9 19.475 9.37499 19.85 9.85 19.85H11.25C11.725 19.85 12.1 19.475 12.1 19ZM26.075 11.925C25.75 11.6 25.2 11.6 24.875 11.925L23.875 12.925C23.55 13.25 23.55 13.8 23.875 14.125C24.2 14.45 24.75 14.45 25.075 14.125L26.075 13.125C26.4 12.8 26.4 12.25 26.075 11.925ZM14.125 23.875C13.8 23.55 13.25 23.55 12.925 23.875L11.925 24.875C11.6 25.2 11.6 25.75 11.925 26.075C12.25 26.4 12.8 26.4 13.125 26.075L14.125 25.075C14.45 24.75 14.45 24.225 14.125 23.875ZM26.075 26.075C26.4 25.75 26.4 25.2 26.075 24.875L25.075 23.875C24.75 23.55 24.2 23.55 23.875 23.875C23.55 24.2 23.55 24.75 23.875 25.075L24.875 26.075C25.2 26.4 25.75 26.4 26.075 26.075ZM14.125 14.125C14.45 13.8 14.45 13.25 14.125 12.925L13.125 11.925C12.8 11.6 12.25 11.6 11.925 11.925C11.6 12.25 11.6 12.8 11.925 13.125L12.925 14.125C13.25 14.45 13.775 14.45 14.125 14.125Z" fill="#3F96D0"/>
</g>
<defs>
<filter id="filter0_d_127_3913" x="0" y="0" width="38" height="38" filterUnits="userSpaceOnUse" color-interpolation-filters="sRGB">
<feFlood flood-opacity="0" result="BackgroundImageFix"/>
<feColorMatrix in="SourceAlpha" type="matrix" values="0 0 0 0 0 0 0 0 0 0 0 0 0 0 0 0 0 0 127 0" result="hardAlpha"/>
<feOffset/>
<feGaussianBlur stdDeviation="2"/>
<feComposite in2="hardAlpha" operator="out"/>
<feColorMatrix type="matrix" values="0 0 0 0 0.544417 0 0 0 0 0.65886 0 0 0 0 0.695 0 0 0 0.25 0"/>
<feBlend mode="normal" in2="BackgroundImageFix" result="effect1_dropShadow_127_3913"/>
<feBlend mode="normal" in="SourceGraphic" in2="effect1_dropShadow_127_3913" result="shape"/>
</filter>
<clipPath id="clip0_127_3913">
<rect width="20" height="20" fill="white" transform="translate(9 9)"/>
</clipPath>
</defs>
</svg>
