<svg width="38" height="38" viewBox="0 0 38 38" fill="none" xmlns="http://www.w3.org/2000/svg">
<g id="1">
<g id="Vector" filter="url(#filter0_d_127_3922)">
<path d="M19 34C27.2843 34 34 27.2843 34 19C34 10.7157 27.2843 4 19 4C10.7157 4 4 10.7157 4 19C4 27.2843 10.7157 34 19 34Z" fill="white"/>
</g>
<path id="Vector_2" d="M20.8851 11C21.5285 12.3835 21.7311 13.9313 21.4654 15.4338C21.1996 16.9362 20.4785 18.3207 19.3996 19.3996C18.3207 20.4785 16.9362 21.1996 15.4338 21.4654C13.9313 21.7311 12.3835 21.5285 11 20.8851C11.3551 22.275 12.0718 23.5461 13.0772 24.5693C14.0827 25.5925 15.341 26.3313 16.7245 26.7107C18.108 27.0901 19.5672 27.0964 20.9539 26.7292C22.3406 26.362 23.6055 25.6342 24.6198 24.6198C25.6342 23.6055 26.362 22.3406 26.7292 20.9539C27.0964 19.5672 27.0901 18.108 26.7107 16.7245C26.3313 15.341 25.5925 14.0827 24.5693 13.0772C23.5461 12.0718 22.275 11.3551 20.8851 11Z" fill="#3F96D0"/>
</g>
<defs>
<filter id="filter0_d_127_3922" x="0" y="0" width="38" height="38" filterUnits="userSpaceOnUse" color-interpolation-filters="sRGB">
<feFlood flood-opacity="0" result="BackgroundImageFix"/>
<feColorMatrix in="SourceAlpha" type="matrix" values="0 0 0 0 0 0 0 0 0 0 0 0 0 0 0 0 0 0 127 0" result="hardAlpha"/>
<feOffset/>
<feGaussianBlur stdDeviation="2"/>
<feComposite in2="hardAlpha" operator="out"/>
<feColorMatrix type="matrix" values="0 0 0 0 0.544417 0 0 0 0 0.65886 0 0 0 0 0.695 0 0 0 0.25 0"/>
<feBlend mode="normal" in2="BackgroundImageFix" result="effect1_dropShadow_127_3922"/>
<feBlend mode="normal" in="SourceGraphic" in2="effect1_dropShadow_127_3922" result="shape"/>
</filter>
</defs>
</svg>
