<svg id="phone-call" xmlns="http://www.w3.org/2000/svg" width="30.43" height="30.431" viewBox="0 0 30.43 30.431">
  <g id="Group_602" data-name="Group 602" transform="translate(7.075)">
    <g id="Group_601" data-name="Group 601">
      <path id="Path_21693" data-name="Path 21693" d="M119.631,0a.594.594,0,1,0,0,1.189,6.177,6.177,0,0,1,6.089,6.247.594.594,0,1,0,1.189,0A7.367,7.367,0,0,0,119.631,0Z" transform="translate(-119.037)" fill="#fff"/>
    </g>
  </g>
  <g id="Group_604" data-name="Group 604" transform="translate(7.073 2.82)">
    <g id="Group_603" data-name="Group 603">
      <path id="Path_21694" data-name="Path 21694" d="M119.6,47.447a.594.594,0,0,0,0,1.189,3.386,3.386,0,0,1,3.334,3.427.594.594,0,0,0,1.189,0A4.576,4.576,0,0,0,119.6,47.447Z" transform="translate(-119.004 -47.447)" fill="#fff"/>
    </g>
  </g>
  <g id="Group_606" data-name="Group 606" transform="translate(7.084 5.418)">
    <g id="Group_605" data-name="Group 605">
      <path id="Path_21695" data-name="Path 21695" d="M119.792,91.155a.594.594,0,0,0,0,1.189.8.8,0,0,1,.779.811.594.594,0,0,0,1.189,0A1.986,1.986,0,0,0,119.792,91.155Z" transform="translate(-119.198 -91.155)" fill="#fff"/>
    </g>
  </g>
  <g id="Group_608" data-name="Group 608" transform="translate(16.283 4.711)">
    <g id="Group_607" data-name="Group 607">
      <path id="Path_21696" data-name="Path 21696" d="M284.936,79.265h-1.318a.594.594,0,0,0,0,1.189h1.318a1.994,1.994,0,0,1,1.991,1.991v8.069a1.988,1.988,0,0,1-.757,1.561V90.521a2.52,2.52,0,0,0-2.057-2.477l-.384-.072a2.683,2.683,0,0,0,.133-.834V85.773a2.693,2.693,0,1,0-5.387,0v1.366a2.684,2.684,0,0,0,.133.834l-.384.072a2.52,2.52,0,0,0-2.057,2.477v1.723a1.992,1.992,0,0,1-1.007-1.73V82.445a1.994,1.994,0,0,1,1.991-1.991h1.417a.594.594,0,0,0,0-1.189h-1.417a3.184,3.184,0,0,0-3.18,3.18v8.069a3.184,3.184,0,0,0,3.18,3.18h2.991V95.4a.594.594,0,0,0,1.013.422l2.144-2.131h1.638a3.184,3.184,0,0,0,3.18-3.18V82.445A3.184,3.184,0,0,0,284.936,79.265Zm-5.273,6.508a1.5,1.5,0,1,1,3.009,0v1.366a1.5,1.5,0,1,1-3.009,0Zm5.318,6.731h-1.928a.6.6,0,0,0-.419.173l-1.3,1.3V93.1a.594.594,0,0,0-.594-.594h-3.381V90.521a1.331,1.331,0,0,1,1.087-1.308l.838-.156a2.688,2.688,0,0,0,3.778,0l.838.156a1.331,1.331,0,0,1,1.087,1.308V92.5Z" transform="translate(-273.969 -79.265)" fill="#fff"/>
    </g>
  </g>
  <g id="Group_610" data-name="Group 610" transform="translate(22.524 4.711)">
    <g id="Group_609" data-name="Group 609">
      <path id="Path_21697" data-name="Path 21697" d="M379.995,79.443a.594.594,0,1,0,.174.42A.6.6,0,0,0,379.995,79.443Z" transform="translate(-378.98 -79.269)" fill="#fff"/>
    </g>
  </g>
  <g id="Group_612" data-name="Group 612" transform="translate(10.033 19.822)">
    <g id="Group_611" data-name="Group 611">
      <path id="Path_21698" data-name="Path 21698" d="M169.821,333.681a.594.594,0,1,0,.174.42A.6.6,0,0,0,169.821,333.681Z" transform="translate(-168.806 -333.507)" fill="#fff"/>
    </g>
  </g>
  <g id="Group_614" data-name="Group 614" transform="translate(0 5.851)">
    <g id="Group_613" data-name="Group 613" transform="translate(0)">
      <path id="Path_21699" data-name="Path 21699" d="M24.064,117.967l-4.554-4.554a1.784,1.784,0,0,0-2.267-.211l-2.906,1.987a.6.6,0,0,1-.756-.07l-.961-.961a.594.594,0,1,0-.841.841l.961.961a1.784,1.784,0,0,0,2.267.211l2.906-1.987a.6.6,0,0,1,.756.07l4.554,4.554a.6.6,0,0,1,0,.841,7.5,7.5,0,0,1-10.592,0L3.384,110.4a7.49,7.49,0,0,1,0-10.592.594.594,0,0,1,.841,0l4.554,4.554a.6.6,0,0,1,.07.756l-1.987,2.906a1.784,1.784,0,0,0,.211,2.267l1.445,1.445a.594.594,0,0,0,.841-.841l-1.445-1.445a.6.6,0,0,1-.07-.756l1.987-2.906a1.784,1.784,0,0,0-.211-2.267L5.065,98.969a1.785,1.785,0,0,0-2.522,0,8.688,8.688,0,0,0,0,12.273l9.247,9.247a8.688,8.688,0,0,0,12.273,0A1.785,1.785,0,0,0,24.064,117.967Z" transform="translate(-0.006 -98.447)" fill="#fff"/>
    </g>
  </g>
  <g id="Group_616" data-name="Group 616" transform="translate(3.389 10.839)">
    <g id="Group_615" data-name="Group 615">
      <path id="Path_21700" data-name="Path 21700" d="M61.645,186.142l-3.6-3.6a.594.594,0,0,0-.841.841l3.6,3.6a.594.594,0,0,0,.841-.841Z" transform="translate(-57.027 -182.365)" fill="#fff"/>
    </g>
  </g>
  <g id="Group_618" data-name="Group 618" transform="translate(16.992 24.442)">
    <g id="Group_617" data-name="Group 617">
      <path id="Path_21701" data-name="Path 21701" d="M290.7,415.2l-3.791-3.791a.594.594,0,0,0-.841.841l3.791,3.791a.594.594,0,1,0,.841-.841Z" transform="translate(-285.898 -411.235)" fill="#fff"/>
    </g>
  </g>
</svg>
