<svg id="customer-service" xmlns="http://www.w3.org/2000/svg" width="30.43" height="30.5" viewBox="0 0 30.43 30.5">
  <g id="Group_620" data-name="Group 620" transform="translate(0 4.919)">
    <g id="Group_619" data-name="Group 619" transform="translate(0)">
      <path id="Path_21702" data-name="Path 21702" d="M25.3,101.645l-1.139-3.417a3.444,3.444,0,0,0-2.651-2.3l-3.288-.6v-.255a4.951,4.951,0,0,0,1.466-1.3h.993A1.478,1.478,0,0,0,22.155,92.3V86.4a6.4,6.4,0,0,0-12.79,0v3.444a1.971,1.971,0,0,0,1.569,1.927A4.929,4.929,0,0,0,13.3,95.077v.255l-3.288.6a3.443,3.443,0,0,0-2.651,2.3l-.2.591L5.489,97.144a.493.493,0,0,1,0-.7L7.432,94.5,3.785,90.858l-2.2,2.2a3.444,3.444,0,0,0,0,4.87l6.649,6.649a3.442,3.442,0,0,0,4.854.015l2.4-2.2-.747-.746ZM21.171,92.3a.492.492,0,0,1-.492.492h-.414a4.886,4.886,0,0,0,.321-1.025,1.949,1.949,0,0,0,.585-.233Zm-.492-1.613V88.992a.975.975,0,0,1,0,1.694Zm-9.839,0a.975.975,0,0,1,0-1.694Zm0-3.307v.562a1.952,1.952,0,0,0-.492.2V86.4a5.411,5.411,0,0,1,10.823,0v1.749a1.933,1.933,0,0,0-.492-.2v-.562h-.492a5.413,5.413,0,0,1-3.851-1.6l-.576-.576-.576.576a5.413,5.413,0,0,1-3.851,1.6Zm.984,3.444V88.344A6.378,6.378,0,0,0,15.759,86.6a6.375,6.375,0,0,0,3.936,1.748v2.478a3.906,3.906,0,0,1-.532,1.968h-3.4v.984h2.594a3.929,3.929,0,0,1-6.53-2.952Zm5.411,4.693v.023l-1.476,1.476-1.476-1.476v-.023a4.915,4.915,0,0,0,2.952,0ZM8.294,98.539A2.461,2.461,0,0,1,10.187,96.9l3.439-.625,2.134,2.134,2.133-2.133,3.438.625a2.46,2.46,0,0,1,1.893,1.643l.708,2.122H13.757l-1.916-1.916-2.129,1.926a.5.5,0,0,1-.7,0L7.941,99.6Zm-4.51-6.29L6.04,94.5l-.534.534L3.25,92.783Zm8.626,11.628a2.46,2.46,0,0,1-3.479,0L2.283,97.228a2.46,2.46,0,0,1,0-3.479l.271-.271L4.81,95.735l-.018.018a1.478,1.478,0,0,0,0,2.087l3.528,3.528a1.468,1.468,0,0,0,1.044.432,1.448,1.448,0,0,0,1.026-.415l.037-.033,2.266,2.266Zm1.008-.925-2.261-2.261.65-.587,2.258,2.258Z" transform="translate(-0.58 -80)" fill="#fff"/>
    </g>
  </g>
  <g id="Group_622" data-name="Group 622" transform="translate(20.591)">
    <g id="Group_621" data-name="Group 621">
      <path id="Path_21703" data-name="Path 21703" d="M343.791,0H336.9a1.478,1.478,0,0,0-1.476,1.476V5.411A1.478,1.478,0,0,0,336.9,6.887h1.314l-.509,2.967,4.747-2.967h1.335a1.478,1.478,0,0,0,1.476-1.476V1.476A1.478,1.478,0,0,0,343.791,0Zm.492,5.411a.493.493,0,0,1-.492.492h-1.617L339.05,7.856l.335-1.953H336.9a.493.493,0,0,1-.492-.492V1.476A.493.493,0,0,1,336.9.984h6.887a.493.493,0,0,1,.492.492Z" transform="translate(-335.428)" fill="#fff"/>
    </g>
  </g>
  <g id="Group_624" data-name="Group 624" transform="translate(22.559 1.968)">
    <g id="Group_623" data-name="Group 623">
      <rect id="Rectangle_423" data-name="Rectangle 423" width="5.903" height="0.984" fill="#fff"/>
    </g>
  </g>
  <g id="Group_626" data-name="Group 626" transform="translate(22.559 3.936)">
    <g id="Group_625" data-name="Group 625">
      <rect id="Rectangle_424" data-name="Rectangle 424" width="3.936" height="0.984" fill="#fff"/>
    </g>
  </g>
  <g id="Group_628" data-name="Group 628" transform="translate(27.478 3.936)">
    <g id="Group_627" data-name="Group 627">
      <rect id="Rectangle_425" data-name="Rectangle 425" width="0.984" height="0.984" fill="#fff"/>
    </g>
  </g>
  <g id="Group_630" data-name="Group 630" transform="translate(0 1.476)">
    <g id="Group_629" data-name="Group 629" transform="translate(0)">
      <path id="Path_21704" data-name="Path 21704" d="M15.752,24a13.766,13.766,0,0,0-13.4,10.648l-.932-1.554L.572,33.6,2.3,36.482l2.881-1.729-.506-.844-1.333.8a12.794,12.794,0,0,1,16.2-9.154l.291-.94A13.765,13.765,0,0,0,15.752,24Z" transform="translate(-0.572 -24)" fill="#fff"/>
    </g>
  </g>
  <g id="Group_632" data-name="Group 632" transform="translate(25.118 9.163)">
    <g id="Group_631" data-name="Group 631">
      <path id="Path_21705" data-name="Path 21705" d="M414.109,150.745l-2.881-1.729L409.5,151.9l.844.506.861-1.435a12.8,12.8,0,0,1-2.168,12.187l.764.62a13.776,13.776,0,0,0,2.357-13.054l1.446.867Z" transform="translate(-409.036 -149.016)" fill="#fff"/>
    </g>
  </g>
</svg>
