<svg id="delivery-truck" xmlns="http://www.w3.org/2000/svg" width="32.571" height="19.358" viewBox="0 0 32.571 19.358">
  <g id="Group_634" data-name="Group 634">
    <g id="Group_633" data-name="Group 633">
      <path id="Path_21706" data-name="Path 21706" d="M28.5,115.549a.509.509,0,0,0-.509.509v3.566h-.81a3.216,3.216,0,0,0-6.392,0H10.179V104.865H27.991v1.6a.509.509,0,0,0,1.018,0v-2.109a.509.509,0,0,0-.509-.509H9.67a.509.509,0,0,0-.509.509v.509H3.332a2.318,2.318,0,0,0-2.315,2.315v.739a.509.509,0,0,0,.509.509h.592l-.388,4.664A2.313,2.313,0,0,0,0,115.322v4.3a.509.509,0,0,0,.509.509H1.54a3.3,3.3,0,0,0,6.591,0l.013,0H9.161a.509.509,0,0,0,.509.509H20.835a3.217,3.217,0,0,0,6.3,0H28.5a.509.509,0,0,0,.509-.509v-4.078A.509.509,0,0,0,28.5,115.549Zm-23.665,6.62a2.29,2.29,0,1,1,2.29-2.29A2.29,2.29,0,0,1,4.835,122.168Zm4.326-3.054H8.143a.467.467,0,0,0-.088.018,3.3,3.3,0,0,0-6.435-.018h-.6v-3.793a1.3,1.3,0,0,1,1.3-1.3H9.161Zm0-6.107h-6.4l.382-4.58H9.161Zm0-5.6H2.036v-.23a1.3,1.3,0,0,1,1.3-1.3H9.161Zm17.021,12.7a2.2,2.2,0,0,1-2.2,2.072h0a2.2,2.2,0,0,1-2.162-1.823.458.458,0,0,0-.026-.5,2.2,2.2,0,1,1,4.384.246Z" transform="translate(0 -103.847)" fill="#fff"/>
      <path id="Path_21707" data-name="Path 21707" d="M327.634,167.847h-7.125a.509.509,0,1,0,0,1.018h7.125a.509.509,0,1,0,0-1.018Z" transform="translate(-299.643 -163.776)" fill="#fff"/>
      <path id="Path_21708" data-name="Path 21708" d="M283.705,255.847h-11.2a.509.509,0,0,0,0,1.018h11.2a.509.509,0,0,0,0-1.018Z" transform="translate(-254.697 -246.177)" fill="#fff"/>
      <path id="Path_21709" data-name="Path 21709" d="M350.107,207.847h-5.6a.509.509,0,0,0,0,1.018h5.6a.509.509,0,0,0,0-1.018Z" transform="translate(-322.116 -201.231)" fill="#fff"/>
      <path id="Path_21710" data-name="Path 21710" d="M464.509,168.865h1.018a.509.509,0,1,0,0-1.018h-1.018a.509.509,0,1,0,0,1.018Z" transform="translate(-434.482 -163.776)" fill="#fff"/>
      <path id="Path_21711" data-name="Path 21711" d="M473.527,255.847h-1.018a.509.509,0,1,0,0,1.018h1.018a.509.509,0,1,0,0-1.018Z" transform="translate(-441.973 -246.177)" fill="#fff"/>
      <path id="Path_21712" data-name="Path 21712" d="M466.545,207.847h-2.036a.509.509,0,1,0,0,1.018h2.036a.509.509,0,0,0,0-1.018Z" transform="translate(-434.482 -201.231)" fill="#fff"/>
    </g>
  </g>
</svg>
