<svg xmlns="http://www.w3.org/2000/svg" width="30.497" height="30.431" viewBox="0 0 30.497 30.431">
  <g id="credit-card" transform="translate(0 -0.516)">
    <g id="Group_636" data-name="Group 636" transform="translate(0 0.516)">
      <g id="Group_635" data-name="Group 635">
        <rect id="Rectangle_426" data-name="Rectangle 426" width="3.056" height="1.019" transform="translate(21.902 20.309)" fill="#fff"/>
        <rect id="Rectangle_427" data-name="Rectangle 427" width="3.056" height="1.019" transform="translate(17.827 20.309)" fill="#fff"/>
        <rect id="Rectangle_428" data-name="Rectangle 428" width="3.056" height="1.019" transform="translate(13.753 20.309)" fill="#fff"/>
        <path id="Path_21720" data-name="Path 21720" d="M30.045,11.047,19.967.967A1.522,1.522,0,0,0,18.884.516h0A1.507,1.507,0,0,0,17.8.967L7.114,11.657H1.528A1.528,1.528,0,0,0,0,13.185V27.447a1.528,1.528,0,0,0,1.528,1.528H9.075l1.52,1.521a1.522,1.522,0,0,0,1.083.451h0a1.508,1.508,0,0,0,1.075-.451l1.523-1.521h11.7a1.528,1.528,0,0,0,1.528-1.528v-11.7l2.538-2.538a1.52,1.52,0,0,0,0-2.164ZM23.566,6.008l-5.649,5.649H13.592L21.4,3.845Zm-5.04-4.323a.5.5,0,0,1,.71-.008l.008.008,1.438,1.44-8.532,8.532h-3.6ZM12.035,29.778a.5.5,0,0,1-.357.153.509.509,0,0,1-.363-.153l-.8-.8h2.323Zm14.451-2.331a.509.509,0,0,1-.509.509H1.528a.509.509,0,0,1-.509-.509V20.316H26.486Zm0-8.15H1.019V16.241H26.486Zm0-4.075H1.019V13.185a.509.509,0,0,1,.509-.509H25.977a.509.509,0,0,1,.509.509Zm2.839-2.734h0l-1.82,1.82V13.185a1.528,1.528,0,0,0-1.528-1.528H19.355l4.928-4.929,5.039,5.039a.509.509,0,0,1,.153.364A.5.5,0,0,1,29.325,12.488Z" transform="translate(0 -0.516)" fill="#fff"/>
        <path id="Path_21721" data-name="Path 21721" d="M27.166,363.069a2.035,2.035,0,0,0,.208-.208,2.02,2.02,0,0,0,2.681.345,2.071,2.071,0,0,0,.884-1.679A2.037,2.037,0,0,0,28.9,359.49a1.544,1.544,0,0,0-.3.025l-.013,0h-.015a2.011,2.011,0,0,0-1.2.676,2.037,2.037,0,1,0-.208,2.874Zm1.608-2.55a.617.617,0,0,1,.129-.011,1.019,1.019,0,0,1,1.019,1.019,1,1,0,0,1-.2.6c-.018.025-.033.051-.053.077,0,0-.009.007-.013.011a1.013,1.013,0,1,1-.881-1.693Zm-2.927-.011a1.019,1.019,0,1,1-1.019,1.019A1.019,1.019,0,0,1,25.846,360.509Z" transform="translate(-22.28 -336.634)" fill="#fff"/>
      </g>
    </g>
  </g>
</svg>
