<svg xmlns="http://www.w3.org/2000/svg" width="27.5" height="27.5" viewBox="0 0 27.5 27.5">
  <g id="transfer" transform="translate(-1 -1)">
    <path id="Path_21731" data-name="Path 21731" d="M11.645,17.855V13.419h4.879a.444.444,0,0,0,.444-.444v-7.1a.444.444,0,0,0-.444-.444H11.645V2.774A1.776,1.776,0,0,0,9.871,1h-7.1A1.776,1.776,0,0,0,1,2.774v15.08a1.776,1.776,0,0,0,1.774,1.774h7.1A1.776,1.776,0,0,0,11.645,17.855Zm4.435-5.322H4.548V6.322H16.08ZM4.1,5.435a.444.444,0,0,0-.444.444v7.1a.444.444,0,0,0,.444.444h6.653v1.774H1.887V4.548h8.871v.887ZM2.774,1.887h7.1a.888.888,0,0,1,.887.887v.887H1.887V2.774A.888.888,0,0,1,2.774,1.887ZM1.887,17.855V16.08h8.871v1.774a.888.888,0,0,1-.887.887h-7.1A.888.888,0,0,1,1.887,17.855Z" fill="#fff"/>
    <path id="Path_21732" data-name="Path 21732" d="M12.017,19.305a.442.442,0,0,0,.314.13h7.1a.442.442,0,0,0,.314-.13l.887-.887a.442.442,0,0,0,.13-.314V16.331a.442.442,0,0,0-.13-.314l-.887-.887a.442.442,0,0,0-.314-.13h-7.1a.442.442,0,0,0-.314.13l-.887.887a.442.442,0,0,0-.13.314V18.1a.442.442,0,0,0,.13.314Zm-.13-2.791.627-.627h6.729l.627.627v1.407l-.627.627H12.514l-.627-.627Z" transform="translate(-5.565 -7.79)" fill="#fff"/>
    <path id="Path_21733" data-name="Path 21733" d="M11,37h1.774v.887H11Z" transform="translate(-5.565 -20.033)" fill="#fff"/>
    <path id="Path_21734" data-name="Path 21734" d="M41.193,21H34.1a1.776,1.776,0,0,0-1.774,1.774v2.661H27.444a.444.444,0,0,0-.444.444v7.1a.444.444,0,0,0,.444.444h4.879v4.435A1.776,1.776,0,0,0,34.1,39.629h7.1a1.776,1.776,0,0,0,1.774-1.774V22.774A1.776,1.776,0,0,0,41.193,21Zm-7.1.887h7.1a.888.888,0,0,1,.887.887v.887H33.21v-.887A.888.888,0,0,1,34.1,21.887Zm-6.21,4.435H39.419v6.21H27.887Zm11.976,7.1a.444.444,0,0,0,.444-.444v-7.1a.444.444,0,0,0-.444-.444H33.21v-.887H42.08V35.193H33.21V33.419Zm1.331,5.322H34.1a.888.888,0,0,1-.887-.887V36.08H42.08v1.774A.888.888,0,0,1,41.193,38.742Z" transform="translate(-14.468 -11.129)" fill="#fff"/>
    <path id="Path_21735" data-name="Path 21735" d="M39.741,35.13a.442.442,0,0,0-.314-.13h-7.1a.442.442,0,0,0-.314.13l-.887.887a.442.442,0,0,0-.13.314V38.1a.442.442,0,0,0,.13.314l.887.887a.442.442,0,0,0,.314.13h7.1a.442.442,0,0,0,.314-.13l.887-.887a.442.442,0,0,0,.13-.314V36.331a.442.442,0,0,0-.13-.314Zm.13,2.791-.627.627H32.514l-.627-.627V36.514l.627-.627h6.729l.627.627Z" transform="translate(-16.694 -18.92)" fill="#fff"/>
    <path id="Path_21736" data-name="Path 21736" d="M49,57h1.774v.887H49Z" transform="translate(-26.71 -31.162)" fill="#fff"/>
    <path id="Path_21737" data-name="Path 21737" d="M36.46,4.581l.627-.627-.574-.573h4.252A1.332,1.332,0,0,1,42.1,4.711V8.7h.887V4.711a2.22,2.22,0,0,0-2.218-2.218H36.514l.574-.573-.627-.627L35.13,2.624a.443.443,0,0,0,0,.627Z" transform="translate(-18.919 -0.163)" fill="#fff"/>
    <path id="Path_21738" data-name="Path 21738" d="M18.523,50.122l-.627.627.573.574H14.218a1.332,1.332,0,0,1-1.331-1.331V46H12v3.992a2.22,2.22,0,0,0,2.218,2.218h4.252l-.573.574.627.627,1.331-1.331a.443.443,0,0,0,0-.627Z" transform="translate(-6.121 -25.041)" fill="#fff"/>
  </g>
</svg>
