<svg xmlns="http://www.w3.org/2000/svg" width="56.895" height="56.823" viewBox="0 0 56.895 56.823">
  <g id="Group_637" data-name="Group 637" transform="translate(-1898 -6144.176)">
    <g id="contract" transform="translate(1898 6144.176)">
      <path id="Path_21713" data-name="Path 21713" d="M41.465,2.522,8.635.326a1.947,1.947,0,0,0-2.07,1.811l-.257,3.84H1.945A1.947,1.947,0,0,0,0,7.922V55.2a1.947,1.947,0,0,0,1.945,1.945h25.13a.842.842,0,0,0,.588-.243l3.794-3.777a.828.828,0,0,0,.118.017l6.476.433a1.993,1.993,0,0,0,2.07-1.811L43.276,4.593a1.961,1.961,0,0,0-1.811-2.07ZM27.908,54.3v-5.79a.278.278,0,0,1,.278-.278h5.767Zm10.55-2.64a.278.278,0,0,1-.3.259l-5.143-.344,3.528-3.513a.833.833,0,0,0,.245-.591V7.922a1.947,1.947,0,0,0-1.945-1.945H26.182a.834.834,0,0,0,0,1.667h8.667a.278.278,0,0,1,.278.278V46.561H28.185a1.947,1.947,0,0,0-1.945,1.945v6.973H1.945a.278.278,0,0,1-.278-.278V7.922a.278.278,0,0,1,.278-.278h19.8a.834.834,0,0,0,0-1.667H7.979l.249-3.729a.278.278,0,0,1,.3-.259l32.83,2.2a.278.278,0,0,1,.259.3Z" transform="translate(0 -0.322)" fill="#fff"/>
      <path id="Path_21714" data-name="Path 21714" d="M79.338,237.047H56.607a.833.833,0,1,0,0,1.667H79.338a.833.833,0,1,0,0-1.667Z" transform="translate(-49.576 -210.741)" fill="#fff"/>
      <path id="Path_21715" data-name="Path 21715" d="M79.338,289.332H56.607a.833.833,0,1,0,0,1.667H79.338a.833.833,0,1,0,0-1.667Z" transform="translate(-49.576 -257.216)" fill="#fff"/>
      <path id="Path_21716" data-name="Path 21716" d="M55.774,185.6a.833.833,0,0,0,.833.833H79.338a.833.833,0,1,0,0-1.667H56.607A.833.833,0,0,0,55.774,185.6Z" transform="translate(-49.576 -164.266)" fill="#fff"/>
      <path id="Path_21717" data-name="Path 21717" d="M91.807,133.31a.833.833,0,0,0,.833.833h14.722a.833.833,0,1,0,0-1.667H92.64A.833.833,0,0,0,91.807,133.31Z" transform="translate(-81.605 -117.791)" fill="#fff"/>
      <path id="Path_21718" data-name="Path 21718" d="M69.073,392.64l-4.5.01-1.511,0c-.913,0-1.528-.182-1.732-1.187-.173-.849-1.374-.735-1.607,0-.577,1.815-1.531,1.1-2.065-.117a17.1,17.1,0,0,1-.9-3.878c-.171-.953-1.612-.686-1.637.222a15.53,15.53,0,0,1-.448,3.529,28.314,28.314,0,0,1-1.247,3.487c-.406,1,1.208,1.424,1.607.443a32.194,32.194,0,0,0,1.133-3.08c.571,1.373,1.753,2.927,3.437,2.011a3.357,3.357,0,0,0,.863-.695c.876,1.012,2.179.932,3.4.931q2.6,0,5.21-.011A.834.834,0,0,0,69.073,392.64Z" transform="translate(-47.431 -343.916)" fill="#fff"/>
      <path id="Path_21719" data-name="Path 21719" d="M411.382,182.531a2.4,2.4,0,0,0-1.633-.668l-.63,0v-1.191a2.307,2.307,0,0,0-1.048-1.874v-1.678c0-3.452-5.375-3.437-5.375.016v1.678a2.2,2.2,0,0,0-1.051,1.873v1.22c-2.774.189-2.782,4.417,0,4.582.018,3.731.017,7.4,0,11.194a.834.834,0,0,0,1.667.009c.02-3.8.021-7.47,0-11.2l4.135-.021s-.005,12.318-.005,17.867a2.068,2.068,0,0,1-4.136-.028v-1.52a.834.834,0,0,0-1.664-.1v1.426a4.093,4.093,0,0,0,1.11,2.986,6.969,6.969,0,0,0,2.041,4.662.884.884,0,0,0,1.194-.02,6.873,6.873,0,0,0,2.019-4.713,3.44,3.44,0,0,0,1.1-2.989v-7.6a2.335,2.335,0,0,0,2.944-2.216V184.153a2.274,2.274,0,0,0-.674-1.623Zm-8.07-.636v-1.2a.535.535,0,0,1,.4-.515l3.336-.017a.526.526,0,0,1,.407.516v1.2Zm2.075-5.778a1.085,1.085,0,0,1,1.017,1.007v1.352l-2.042.01v-1.346A1.028,1.028,0,0,1,405.386,176.116Zm0,33.771a5.316,5.316,0,0,1-.824-1.823,3.624,3.624,0,0,0,1.652-.021A5.2,5.2,0,0,1,405.385,209.886Zm5-15.657a.637.637,0,0,1-1.273.015s0-7.887,0-8.61a.84.84,0,0,0-.84-.834l-6.488.032a.632.632,0,0,1,.008-1.263l7.958-.039a.625.625,0,0,1,.632.624v10.076Z" transform="translate(-355.161 -155.181)" fill="#fff"/>
    </g>
  </g>
</svg>
