<svg width="40" height="48" viewBox="0 0 40 48" fill="none" xmlns="http://www.w3.org/2000/svg">
<path d="M33.0074 25.8302C32.9564 19.8994 37.9926 17.0168 38.2138 16.8842C35.3554 12.8419 30.9317 12.2787 29.3834 12.229C25.6742 11.8479 22.0672 14.3992 20.1786 14.3992C18.256 14.3992 15.3295 12.2787 12.1989 12.3284C8.16645 12.3946 4.37225 14.6643 2.31352 18.2096C-1.95709 25.4161 1.2246 36.0188 5.32506 41.8502C7.38379 44.6997 9.7658 47.8971 12.9135 47.7811C15.976 47.6651 17.133 45.8759 20.8251 45.8759C24.5002 45.8759 25.5721 47.7811 28.7708 47.7149C32.0716 47.6652 34.1304 44.8488 36.121 41.9662C38.486 38.7026 39.4388 35.4721 39.4729 35.3064C39.3878 35.2733 33.0755 32.9208 33.0074 25.8302Z" fill="black"/>
<path d="M26.9673 8.40202C28.6177 6.39742 29.7407 3.66387 29.4344 0.880615C27.0524 0.980017 24.0579 2.48761 22.3394 4.45908C20.8252 6.19861 19.464 9.03157 19.8043 11.6989C22.4926 11.8977 25.2489 10.3735 26.9673 8.40202Z" fill="black"/>
</svg>
