<svg width="50" height="54" viewBox="0 0 50 54" fill="none" xmlns="http://www.w3.org/2000/svg">
<path d="M5.32458 1.25984L35.6207 18.03L27.765 25.679L1.98291 0.973609C2.30542 0.784225 2.6592 0.673379 3.04717 0.646396C3.6701 0.603071 4.42457 0.773354 5.32249 1.25871C5.32318 1.25908 5.32388 1.25946 5.32458 1.25984ZM1.0837 1.7064L26.9443 26.6853L1.349 51.6075C0.991359 51.0829 0.75 50.3378 0.75 49.444V3.71681C0.75 2.86482 0.855707 2.19366 1.0837 1.7064ZM5.34066 52.3059C3.95347 52.9023 2.91756 52.9972 2.13218 52.6543L27.6626 27.7954L35.4893 35.4163L5.34066 52.3059ZM46.7619 29.5545L36.7394 34.8243L28.3792 26.6838L36.5345 18.743L46.7569 24.4307C48.1572 25.2099 48.7312 26.1584 48.7312 26.994C48.7312 27.8286 48.1586 28.7758 46.7619 29.5545Z" fill="black" stroke="white"/>
</svg>
