<svg xmlns="http://www.w3.org/2000/svg" width="44.203" height="44.209" viewBox="0 0 44.203 44.209">
  <g id="user-experience" transform="translate(-0.5 -0.002)">
    <path id="Path_21661" data-name="Path 21661" d="M41.722,22.112a30.73,30.73,0,0,0,2.171-5.555c1.594-5.755.822-10.575-2.173-13.57S33.9-.781,28.149.813a30.755,30.755,0,0,0-5.555,2.171A29.474,29.474,0,0,0,15.75.49C10.579-.643,6.221.243,3.479,2.986A10.78,10.78,0,0,0,.527,10.139a21.858,21.858,0,0,0,1.539,8.744,4.1,4.1,0,0,0,0,6.446A21.858,21.858,0,0,0,.527,34.074a10.782,10.782,0,0,0,2.952,7.153,11.016,11.016,0,0,0,8.055,2.98,18.12,18.12,0,0,0,2.075-.123A27.23,27.23,0,0,0,22.6,41.231,30.739,30.739,0,0,0,28.149,43.4a20.776,20.776,0,0,0,5.516.811,11.03,11.03,0,0,0,8.054-2.984c2.743-2.742,3.629-7.1,2.5-12.272a29.477,29.477,0,0,0-2.493-6.843ZM28.495,2.063C33.781.6,38.151,1.253,40.8,3.9s3.3,7.021,1.841,12.307a28.77,28.77,0,0,1-1.673,4.481,42.478,42.478,0,0,0-4.586-6.606A4.1,4.1,0,0,0,36.4,9.034l-1.024.8a2.783,2.783,0,0,1,.591,1.724,2.809,2.809,0,1,1-1.377-2.418l.663-1.115a4.1,4.1,0,0,0-4.628.3,42.522,42.522,0,0,0-6.606-4.586,28.8,28.8,0,0,1,4.481-1.673ZM4.4,3.9C7.9.4,14.335.527,21.178,3.732a44.194,44.194,0,0,0-9.607,7.347,45.408,45.408,0,0,0-5.806,7.083A4.144,4.144,0,0,0,4.608,18a4.1,4.1,0,0,0-1.4.245C.963,12.117,1.384,6.916,4.4,3.9Zm7.171,39a9.847,9.847,0,0,1-7.172-2.6C1.384,37.3.962,32.1,3.21,25.97a4.1,4.1,0,0,0,2.553.079,45.381,45.381,0,0,0,5.808,7.085,44.2,44.2,0,0,0,9.6,7.345A23.18,23.18,0,0,1,11.567,42.9ZM22.6,39.773a42.369,42.369,0,0,1-10.106-7.557,44.164,44.164,0,0,1-5.543-6.734,4.106,4.106,0,0,0,1.771-3.376c0-.122-.005-.245-.016-.366l-1.292.114c.007.083.011.167.011.251a2.808,2.808,0,1,1-.3-1.258l1.16-.581a4.113,4.113,0,0,0-1.334-1.541A44.187,44.187,0,0,1,12.489,12,42.358,42.358,0,0,1,22.6,4.438a40.685,40.685,0,0,1,7.138,4.835,4.106,4.106,0,0,0,5.7,5.7,40.7,40.7,0,0,1,4.835,7.138,42.373,42.373,0,0,1-7.558,10.11c-.346.345-.7.689-1.06,1.025a4.1,4.1,0,0,0-5.17-.108l.8,1.024A2.785,2.785,0,0,1,29,33.566a2.81,2.81,0,1,1-2.418,1.377l-1.115-.663a4.1,4.1,0,0,0-.152,3.911q-1.363.87-2.719,1.582Zm18.206.536c-2.65,2.651-7.021,3.3-12.307,1.841a28.8,28.8,0,0,1-4.478-1.672q1.025-.573,2.049-1.228A4.106,4.106,0,0,0,32.5,34.225c.382-.358.761-.723,1.129-1.091a44.2,44.2,0,0,0,7.347-9.607c3.2,6.844,3.336,13.275-.172,16.783Zm0,0" transform="translate(0 0)" fill="#fff"/>
    <path id="Path_21662" data-name="Path 21662" d="M251.512,264.566h-1.34V261.3a3.256,3.256,0,0,0-2.363-3.122l-.485-.137-.352,1.249.485.137a1.953,1.953,0,0,1,1.418,1.873v3.269h-2.335v-1.773h-1.3v1.773H239.4v1.3h12.109Zm0,0" transform="translate(-218.274 -235.757)" fill="#fff"/>
    <path id="Path_21663" data-name="Path 21663" d="M146.01,120.4l2.7.763.352-1.249-2.65-.747v-1.723a4.54,4.54,0,0,0,1.989-3.754v-1.9a4.541,4.541,0,0,0-9.082,0v1.9a4.54,4.54,0,0,0,1.989,3.754v1.723L136.93,120.4a3.256,3.256,0,0,0-2.363,3.122v3.269h-1.34v1.3H141.1v-1.3h-1.6v-1.773h-1.3v1.773h-2.335v-3.269a1.953,1.953,0,0,1,1.418-1.873l4.437-1.251a2.91,2.91,0,0,0,4.291,0Zm-2.146-11.857a3.247,3.247,0,0,1,3.243,3.244v.722l-1.364-1.8h-4.937A3.248,3.248,0,0,1,143.865,108.544Zm-3.243,5.146V112H145.1l1.9,2.515a3.243,3.243,0,0,1-6.379-.828Zm1.989,5.759v-1.4a4.513,4.513,0,0,0,2.508,0v1.4a1.613,1.613,0,0,1-2.508,0Zm0,0" transform="translate(-121.266 -97.984)" fill="#fff"/>
    <path id="Path_21664" data-name="Path 21664" d="M276.776,276.33l-1.827-.515.352-1.249,1.827.515Zm0,0" transform="translate(-250.751 -250.857)" fill="#fff"/>
    <path id="Path_21665" data-name="Path 21665" d="M312.156,284.938l-.352,1.249-1.249-.352.352-1.249Zm0,0" transform="translate(-283.283 -260.011)" fill="#fff"/>
    <path id="Path_21666" data-name="Path 21666" d="M371.129,126.281h1.3v1.3h-1.3Zm0,0" transform="translate(-338.627 -115.375)" fill="#fff"/>
    <path id="Path_21667" data-name="Path 21667" d="M323.047,413.77h1.3v1.3h-1.3Zm0,0" transform="translate(-294.696 -378.041)" fill="#fff"/>
    <path id="Path_21668" data-name="Path 21668" d="M40.566,248.488h1.3v1.3h-1.3Zm0,0" transform="translate(-36.607 -227.03)" fill="#fff"/>
  </g>
</svg>
