<svg xmlns="http://www.w3.org/2000/svg" width="67.435" height="44.209" viewBox="0 0 67.435 44.209">
  <g id="meter" transform="translate(0)">
    <path id="Path_21669" data-name="Path 21669" d="M72.5,64.125a8.38,8.38,0,1,0,8.38,8.38A8.39,8.39,0,0,0,72.5,64.125Zm0,14.78a6.4,6.4,0,1,1,6.4-6.4A6.407,6.407,0,0,1,72.5,78.905Zm0,0" transform="translate(-55.68 -55.679)" fill="#fff"/>
    <path id="Path_21670" data-name="Path 21670" d="M100.345,96.188a4.157,4.157,0,1,0,4.157,4.157A4.162,4.162,0,0,0,100.345,96.188Zm0,6.334a2.177,2.177,0,1,1,2.177-2.177A2.179,2.179,0,0,1,100.345,102.522Zm0,0" transform="translate(-83.519 -83.519)" fill="#fff"/>
    <path id="Path_21671" data-name="Path 21671" d="M40.921,54.611a10.625,10.625,0,0,1,3.744-20.568,10.508,10.508,0,0,1,4.767,1.127.99.99,0,0,0,.89-1.768,12.476,12.476,0,0,0-5.657-1.338,12.6,12.6,0,0,0-4.442,24.4.99.99,0,0,0,.7-1.852Zm0,0" transform="translate(-27.84 -27.84)" fill="#fff"/>
    <path id="Path_21672" data-name="Path 21672" d="M179.285,70.076a10.571,10.571,0,0,1-4.041,8.339.989.989,0,0,0-.163,1.39,1,1,0,0,0,1.39.163,12.6,12.6,0,0,0,1.568-18.312.99.99,0,1,0-1.472,1.323,10.6,10.6,0,0,1,2.718,7.1Zm0,0" transform="translate(-151.836 -53.25)" fill="#fff"/>
    <path id="Path_21673" data-name="Path 21673" d="M66.445,31.672H24.736A16.824,16.824,0,1,0,0,16.826V27.383A16.845,16.845,0,0,0,16.825,44.209H41.767a.99.99,0,0,0,0-1.98H16.825A14.863,14.863,0,0,1,1.979,27.383V24.739a16.841,16.841,0,0,0,14.846,8.913h8.512V37.94a.99.99,0,0,0,1.98,0V33.652h6.466V37.94a.99.99,0,1,0,1.98,0V33.652h6.466V37.94a.99.99,0,0,0,1.98,0V33.652h6.466V37.94a.99.99,0,1,0,1.98,0V33.652h2.757l3.432,4.289-3.432,4.289H46.386a.99.99,0,0,0,0,1.98H66.445a.99.99,0,0,0,.99-.99V32.662a.99.99,0,0,0-.99-.99ZM1.979,16.826A14.846,14.846,0,1,1,16.825,31.672,14.863,14.863,0,0,1,1.979,16.826Zm58.9,21.733a.99.99,0,0,0,0-1.237l-2.936-3.67h7.508v8.578H57.947Zm0,0" fill="#fff"/>
  </g>
</svg>
