<svg xmlns="http://www.w3.org/2000/svg" width="58.263" height="44.209" viewBox="0 0 58.263 44.209">
  <g id="scale" transform="translate(0 -61.871)">
    <path id="Path_21674" data-name="Path 21674" d="M52.418,85.2a.852.852,0,0,0-.839-.7H6.685a.852.852,0,0,0-.839.7L3.6,97.925a.86.86,0,0,0,.839,1H31.687a.852.852,0,1,0,0-1.7H5.451L7.4,86.2H50.865l1.948,11.016H35.095a.852.852,0,0,0,0,1.7H53.829a.86.86,0,0,0,.839-1Zm-30.1,5.136v2.7a2.561,2.561,0,0,0,2.555,2.57,2.59,2.59,0,0,0,2.556-2.557V90.328a2.555,2.555,0,1,0-5.111.014Zm3.407,2.714a.822.822,0,0,1-.824.853.855.855,0,0,1-.88-.866v-2.7a.844.844,0,0,1,.852-.867.833.833,0,0,1,.852.854Zm10.221,0V90.328a2.581,2.581,0,0,0-3.191-2.479,2.545,2.545,0,0,0-1.919,2.492v2.7a2.555,2.555,0,1,0,5.111.014Zm-1.7,0a.845.845,0,0,1-.848.856.86.86,0,0,1-.856-.869v-2.7a.844.844,0,0,1,.852-.867.832.832,0,0,1,.852.854ZM58.2,97.337,55.938,84.573a4.342,4.342,0,0,0-4.28-3.592H41.738V79.164h3.2a2.022,2.022,0,0,0,2.019-2.019v-1.5h3.86a4.455,4.455,0,0,0,4.332-3.521l1.06-5a2.671,2.671,0,0,0-.652-5.253H2.7a2.671,2.671,0,0,0-.652,5.253l.367,1.73A.852.852,0,1,0,4.083,68.5l-.274-1.294H54.455l-.967,4.562a2.743,2.743,0,0,1-2.665,2.17H7.441a2.743,2.743,0,0,1-2.665-2.17.852.852,0,1,0-1.667.353,4.455,4.455,0,0,0,4.332,3.521H11.3v1.5a2.022,2.022,0,0,0,2.019,2.019h3.2v1.817H6.606a4.342,4.342,0,0,0-4.28,3.592L.068,97.337a4.389,4.389,0,0,0,4.28,5.108H5.509v1.613A2.023,2.023,0,0,0,7.53,106.08h6.521a2.023,2.023,0,0,0,2.021-2.021v-1.613H42.193v1.613a2.023,2.023,0,0,0,2.021,2.021h6.521a2.023,2.023,0,0,0,2.021-2.021v-1.613h1.161A4.412,4.412,0,0,0,58.2,97.337ZM2.759,65.5H2.7a.965.965,0,0,1,0-1.929h52.86a.965.965,0,0,1,0,1.929ZM13.321,77.46A.316.316,0,0,1,13,77.144v-1.5H45.259v1.5a.316.316,0,0,1-.316.316Zm26.714,1.7v1.817H18.229V79.164Zm-25.667,24.9a.318.318,0,0,1-.317.317H7.53a.318.318,0,0,1-.317-.317v-1.614h7.155Zm36.683,0a.318.318,0,0,1-.317.317H44.214a.318.318,0,0,1-.317-.317v-1.614h7.155Zm2.864-3.317H4.349a2.668,2.668,0,0,1-2.6-3.108L4,84.87a2.641,2.641,0,0,1,2.6-2.185H51.658a2.641,2.641,0,0,1,2.6,2.185l2.258,12.764a2.673,2.673,0,0,1-2.6,3.108ZM28.223,94.666a.852.852,0,1,0,.852-.852A.852.852,0,0,0,28.223,94.666Z" transform="translate(0)" fill="#fff"/>
  </g>
</svg>
