<svg id="Group_69" data-name="Group 69" xmlns="http://www.w3.org/2000/svg" width="130.76" height="26.226" viewBox="0 0 130.76 26.226">
  <path id="Path_21655" data-name="Path 21655" d="M558.974,92.615l-.136.034a13.074,13.074,0,0,0-4.452,2.056c-2.881,2.023-5.16,1.424-5.857,1.16a2.188,2.188,0,0,0,1.8-.614,2.362,2.362,0,0,0,.475-2.565,2.482,2.482,0,0,0-1.427-1.454,2.925,2.925,0,0,0-3.744,1.684,3.424,3.424,0,0,0,1.913,4.414c.467.245,3.766,1.653,7.834-1.2a11.476,11.476,0,0,1,3.83-1.785l.158-.038a4.105,4.105,0,0,1,3.785,1.043,3.708,3.708,0,0,1,1.126,3.4c-.019.1-.041.2-.064.3a3.152,3.152,0,0,1-1.661,2.011,2.93,2.93,0,0,1-3.254-.094,2.457,2.457,0,0,1-.832-2.539,1.706,1.706,0,0,1,.878-1.066,1.589,1.589,0,0,1,1.766.011,1.255,1.255,0,0,1,.429,1.3.834.834,0,0,1-1.013.6.87.87,0,1,0-.441,1.684,2.578,2.578,0,0,0,3.137-1.842,3,3,0,0,0-1.028-3.107,3.282,3.282,0,0,0-3.657-.188,3.448,3.448,0,0,0-1.751,2.166,4.2,4.2,0,0,0,1.427,4.335,4.636,4.636,0,0,0,5.137.286,4.943,4.943,0,0,0,2.554-3.122c.038-.139.068-.282.094-.418a5.41,5.41,0,0,0-1.635-4.975,5.868,5.868,0,0,0-5.393-1.48Zm-11.687,2.226a1.7,1.7,0,0,1-.03-1.3,1.176,1.176,0,0,1,1.507-.682.723.723,0,0,1,.407.433.664.664,0,0,1-.064.719.434.434,0,0,1-.463.1.869.869,0,0,0-1.137,1.092A1.706,1.706,0,0,1,547.287,94.841Z" transform="translate(-500.584 -77.018)" fill="#e3000f"/>
  <path id="Path_21656" data-name="Path 21656" d="M602.4,93.037a5.916,5.916,0,0,0-1.529,1.058,5.414,5.414,0,0,0-1.635,4.975c.026.139.057.279.094.418a4.942,4.942,0,0,0,2.554,3.122,4.636,4.636,0,0,0,5.137-.286,4.205,4.205,0,0,0,1.427-4.335,3.46,3.46,0,0,0-1.751-2.166,3.282,3.282,0,0,0-3.657.188,3,3,0,0,0-1.028,3.107,2.582,2.582,0,0,0,3.137,1.842.87.87,0,1,0-.441-1.684.834.834,0,0,1-1.013-.6,1.255,1.255,0,0,1,.429-1.3,1.588,1.588,0,0,1,1.766-.011,1.715,1.715,0,0,1,.878,1.066,2.466,2.466,0,0,1-.832,2.539,2.931,2.931,0,0,1-3.254.094,3.143,3.143,0,0,1-1.661-2.011,2.8,2.8,0,0,1-.064-.3,3.709,3.709,0,0,1,1.126-3.4,4.108,4.108,0,0,1,3.785-1.043l.158.038a11.4,11.4,0,0,1,3.83,1.785c4.068,2.855,7.367,1.446,7.834,1.2a3.424,3.424,0,0,0,1.913-4.414,2.925,2.925,0,0,0-3.744-1.684,2.493,2.493,0,0,0-1.427,1.454,2.349,2.349,0,0,0,.474,2.565,2.193,2.193,0,0,0,1.8.614c-.7.264-2.979.862-5.857-1.16a13.074,13.074,0,0,0-4.452-2.056l-.136-.034A5.865,5.865,0,0,0,602.4,93.037Zm15.325,2.169a.869.869,0,0,0-1.137-1.092.439.439,0,0,1-.463-.1.649.649,0,0,1-.064-.719.734.734,0,0,1,.407-.433,1.178,1.178,0,0,1,1.507.682,1.681,1.681,0,0,1-.03,1.3A1.706,1.706,0,0,1,617.722,95.206Z" transform="translate(-534.083 -77.018)" fill="#e3000f"/>
  <g id="Group_55" data-name="Group 55" transform="translate(37.425 0)">
    <path id="Path_21657" data-name="Path 21657" d="M580.767,131.568a6.535,6.535,0,0,1-5.013,2.742,5.528,5.528,0,0,1-1.378-.154,5.589,5.589,0,0,1-4.169-4.425,4.194,4.194,0,0,1-.072-.719,4.623,4.623,0,0,1,.953-2.847,4.526,4.526,0,0,1,3.5-1.932,3.963,3.963,0,0,1,.957.105,3.916,3.916,0,0,1,2.938,3.1,3.063,3.063,0,0,1,.053.554,3.321,3.321,0,0,1-2.7,3.311h-.008l-.154.015a.932.932,0,0,1-.927-.753h0v-.008h0l-.015-.158a.926.926,0,0,1,.761-.927,1.456,1.456,0,0,0,1.186-1.454,1.345,1.345,0,0,0-.023-.245,2.053,2.053,0,0,0-1.54-1.627,2.086,2.086,0,0,0-.5-.056,2.687,2.687,0,0,0-2.041,1.2A2.731,2.731,0,0,0,572,128.98a2.53,2.53,0,0,0,.041.411,3.74,3.74,0,0,0,2.78,2.953,3.593,3.593,0,0,0,.934.105,4.663,4.663,0,0,0,3.552-2.026,4.792,4.792,0,0,0,1.047-3.009,4.739,4.739,0,0,0-.075-.761c-.026-.147-.06-.294-.1-.437a5.475,5.475,0,0,0-3.638-3.849,6.113,6.113,0,0,0-2.049-.32,6.014,6.014,0,0,0-3.646,1.3l-.2.154,0,0,0,0a16.388,16.388,0,0,0-3.849,4.6v0a12.211,12.211,0,0,1-5.22,5.122,8.824,8.824,0,0,1-3.608.923H557.8c-.068,0-.136.008-.2.008h-.109a4.483,4.483,0,0,1-3.548-1.8,4.621,4.621,0,0,1-.652.678,4.455,4.455,0,0,1-2.821,1.055h-.109c-.1,0-.2-.008-.305-.015a8.367,8.367,0,0,1-3.4-.821,12.046,12.046,0,0,1-5.472-5.386v0a16.352,16.352,0,0,0-3.778-4.689l-.008-.008-.177-.147a6.05,6.05,0,0,0-5.672-1.081,5.473,5.473,0,0,0-3.714,3.781c-.041.143-.075.29-.105.437a4.51,4.51,0,0,0-.094.975,4.814,4.814,0,0,0,.991,2.81,4.59,4.59,0,0,0,3.691,2.094,3.728,3.728,0,0,0,3.593-2.99,2.477,2.477,0,0,0,.049-.527,2.786,2.786,0,0,0-.542-1.586A2.641,2.641,0,0,0,533.3,125.7a2.143,2.143,0,0,0-.407.049,2.057,2.057,0,0,0-1.571,1.6,1.49,1.49,0,0,0-.03.313,1.462,1.462,0,0,0,1.16,1.409.927.927,0,0,1,.742.9.917.917,0,0,1-.019.2.931.931,0,0,1-.9.746.875.875,0,0,1-.2-.019,3.321,3.321,0,0,1-2.648-3.2,3.275,3.275,0,0,1,.068-.712,3.919,3.919,0,0,1,2.994-3.047,3.856,3.856,0,0,1,.772-.09,4.484,4.484,0,0,1,3.65,2,4.654,4.654,0,0,1,.9,2.655,4.266,4.266,0,0,1-.087.927,5.6,5.6,0,0,1-4.252,4.346,5.4,5.4,0,0,1-1.119.132,6.475,6.475,0,0,1-5.224-2.84,6.739,6.739,0,0,1-1.356-3.921,6.051,6.051,0,0,1,.128-1.352c.038-.192.083-.38.136-.569a7.312,7.312,0,0,1,4.941-5.051,8.05,8.05,0,0,1,2.3-.373,7.869,7.869,0,0,1,5.118,1.789l.166.136h0a17.976,17.976,0,0,1,4.245,5.239v0a10.156,10.156,0,0,0,4.678,4.618,6.481,6.481,0,0,0,2.58.629h.106c.094.008.185.011.279.011a2.592,2.592,0,0,0,1.646-.618,2.658,2.658,0,0,0,.938-1.808,1.793,1.793,0,0,0,.008-.2,1.944,1.944,0,0,0-1.74-1.9l-.117,0a1.36,1.36,0,0,0-.889.373,1.344,1.344,0,0,0-.486.968.926.926,0,0,0,.049.282.908.908,0,0,0,.772.606.933.933,0,0,1,.847.911l0,.094v0a.936.936,0,0,1-.919.847l-.09,0a2.77,2.77,0,0,1-2.52-2.712,3.324,3.324,0,0,1,3.209-3.228c.105,0,.215,0,.324.011a3.742,3.742,0,0,1,.9.215,2.468,2.468,0,0,1-.753-1.378,4.594,4.594,0,0,1-.072-.753,8.573,8.573,0,0,1,.829-3.435,12.825,12.825,0,0,1,.908-1.71.92.92,0,0,1,.765-.4.932.932,0,0,1,.806.418,13.125,13.125,0,0,1,.836,1.631,9,9,0,0,1,.81,3.3,4.7,4.7,0,0,1-.09,1,2.483,2.483,0,0,1-.772,1.363,3.729,3.729,0,0,1,.9-.2h0c.057,0,.117-.008.177-.008a3.33,3.33,0,0,1,3.292,3.156,2.869,2.869,0,0,1-.169,1,2.766,2.766,0,0,1-2.388,1.8h-.011l-.045,0a.923.923,0,0,1-.942-.851h0v-.015h0l0-.053a.933.933,0,0,1,.866-.942.905.905,0,0,0,.783-.591.962.962,0,0,0,.057-.324,1.374,1.374,0,0,0-.467-.934,1.342,1.342,0,0,0-.934-.392l-.064,0a1.946,1.946,0,0,0-1.778,1.966l0,.105a2.638,2.638,0,0,0,.9,1.823,2.609,2.609,0,0,0,1.77.652l.147-.008h.215a6.889,6.889,0,0,0,2.84-.746,10.379,10.379,0,0,0,4.4-4.369v0a17.969,17.969,0,0,1,4.328-5.145h0l.181-.143a7.917,7.917,0,0,1,7.439-1.277,7.314,7.314,0,0,1,4.847,5.141c.049.188.09.377.128.569a6.571,6.571,0,0,1,.105,1.051A6.886,6.886,0,0,1,580.767,131.568Zm-26.752-6.727h0a.566.566,0,0,0,.335-.109.6.6,0,0,0,.222-.38h0a2.989,2.989,0,0,0,.053-.621,6.928,6.928,0,0,0-.591-2.41,6.788,6.788,0,0,0-.64,2.576,2.729,2.729,0,0,0,.041.441.606.606,0,0,0,.218.392.589.589,0,0,0,.343.109Zm.034,1.861h-.064a2.474,2.474,0,0,1-.58-.079,3.839,3.839,0,0,1,.572.561,3.841,3.841,0,0,1,.588-.546A2.844,2.844,0,0,1,554.049,126.7Z" transform="translate(-525.778 -118.378)" fill="#e3000f"/>
    <path id="Path_21658" data-name="Path 21658" d="M598.79,159.6Z" transform="translate(-571.291 -159.193)" fill="#e3000f"/>
  </g>
  <path id="Path_21659" data-name="Path 21659" d="M699.555,127.856H656.588a.678.678,0,0,1,0-1.356h42.967a.678.678,0,0,1,0,1.356Z" transform="translate(-569.472 -114.982)" fill="#e3000f"/>
  <path id="Path_21660" data-name="Path 21660" d="M470.054,128.756H427.088a.678.678,0,0,1,0-1.356h42.967a.678.678,0,1,1,0,1.356Z" transform="translate(-426.41 -116.221)" fill="#e3000f"/>
</svg>
