<svg xmlns="http://www.w3.org/2000/svg" width="164.01" height="58.429" viewBox="0 0 164.01 58.429">
  <g id="Virtus_Tricot_logo" data-name="Virtus Tricot logo" transform="translate(-727 -498.64)">
    <path id="Path_1" data-name="Path 1" d="M727.07,542.611v-10.8a2.186,2.186,0,0,1,2.182-2.182h26.734a2.186,2.186,0,0,1,2.182,2.182v10.8a2.186,2.186,0,0,1-2.182,2.182H729.252a2.186,2.186,0,0,1-2.182-2.182Z" transform="translate(-0.021 -9.454)" fill="#e30613" fill-rule="evenodd"/>
    <path id="Path_2" data-name="Path 2" d="M781.58,542.611v-10.8a2.186,2.186,0,0,1,2.182-2.182H810.5a2.186,2.186,0,0,1,2.182,2.182v10.8a2.186,2.186,0,0,1-2.182,2.182H783.762a2.181,2.181,0,0,1-2.182-2.182Z" transform="translate(-16.651 -9.454)" fill="#e30613" fill-rule="evenodd"/>
    <path id="Path_3" data-name="Path 3" d="M754.33,573.881v-10.8a2.186,2.186,0,0,1,2.182-2.182h26.734a2.186,2.186,0,0,1,2.182,2.182v10.8a2.186,2.186,0,0,1-2.182,2.182H756.512a2.186,2.186,0,0,1-2.182-2.182Z" transform="translate(-8.338 -18.994)" fill="#e30613" fill-rule="evenodd"/>
    <path id="Path_4" data-name="Path 4" d="M754.33,511.621v-10.8a2.186,2.186,0,0,1,2.182-2.182h26.734a2.186,2.186,0,0,1,2.182,2.182v10.8a2.186,2.186,0,0,1-2.182,2.182H756.512a2.186,2.186,0,0,1-2.182-2.182Z" transform="translate(-8.338 0)" fill="#e30613" fill-rule="evenodd"/>
    <path id="Path_5" data-name="Path 5" d="M727,511.673v-10.9a2.136,2.136,0,0,1,2.127-2.127h8.652a2.136,2.136,0,0,1,2.127,2.127v10.9a2.136,2.136,0,0,1-2.127,2.126h-8.652A2.136,2.136,0,0,1,727,511.673Z" transform="translate(0 -0.003)" fill="#e30613" fill-rule="evenodd"/>
    <path id="Path_6" data-name="Path 6" d="M807.72,511.683v-10.9a2.135,2.135,0,0,1,2.127-2.126H818.5a2.135,2.135,0,0,1,2.126,2.126v10.9a2.135,2.135,0,0,1-2.126,2.126h-8.652a2.131,2.131,0,0,1-2.127-2.126Z" transform="translate(-24.625 -0.006)" fill="#e30613" fill-rule="evenodd"/>
    <path id="Path_7" data-name="Path 7" d="M727.07,573.933v-10.9a2.135,2.135,0,0,1,2.127-2.126h8.652a2.135,2.135,0,0,1,2.126,2.126v10.9a2.135,2.135,0,0,1-2.126,2.126H729.2a2.131,2.131,0,0,1-2.127-2.126Z" transform="translate(-0.021 -18.997)" fill="#e30613" fill-rule="evenodd"/>
    <path id="Path_8" data-name="Path 8" d="M807.75,573.933v-10.9a2.135,2.135,0,0,1,2.126-2.126h8.652a2.135,2.135,0,0,1,2.126,2.126v10.9a2.135,2.135,0,0,1-2.126,2.126h-8.652a2.131,2.131,0,0,1-2.126-2.126Z" transform="translate(-24.635 -18.997)" fill="#e30613" fill-rule="evenodd"/>
    <path id="Path_9" data-name="Path 9" d="M859.577,532.835h-3.641l-7.755-19.284h3.641l5.935,14.4,5.935-14.4h3.641l-7.755,19.284Zm13.162,0h-3.093V518.158h3.093v14.677Zm-2.9-17.6a1.88,1.88,0,0,1-.577-1.383,1.906,1.906,0,0,1,.577-1.383,1.88,1.88,0,0,1,1.383-.577,1.906,1.906,0,0,1,1.383.577,1.879,1.879,0,0,1,.577,1.383,1.907,1.907,0,0,1-.577,1.383,1.946,1.946,0,0,1-2.766,0Zm15.066,5.823a4.089,4.089,0,0,0-3.447,1.487,6.359,6.359,0,0,0-1.161,4v6.289h-3.092V518.158H880.3v2.953a6.423,6.423,0,0,1,2.029-2.265,4.878,4.878,0,0,1,2.717-.91l.028,3.12Zm7.06-.41v7.45a2.4,2.4,0,0,0,.549,1.668,1.947,1.947,0,0,0,1.543.619,2.623,2.623,0,0,0,1.9-.966l1.272,2.182a5.272,5.272,0,0,1-3.6,1.459,4.627,4.627,0,0,1-3.363-1.369,4.914,4.914,0,0,1-1.39-3.683v-7.366h-1.848v-2.481h1.848v-4.607h3.092v4.607h3.864v2.481h-3.871Zm17.992,5.462v-7.943h3.093v14.677h-3.093v-2.675a5.768,5.768,0,0,1-8.9,1.383,5.907,5.907,0,0,1-1.529-4.385v-8.992h3.093v8.054q0,4.055,3.363,4.058a4.037,4.037,0,0,0,2.787-1.063,3.978,3.978,0,0,0,1.188-3.113Zm18.02,2.342a4.131,4.131,0,0,1-1.515,3.35,5.922,5.922,0,0,1-3.891,1.258,10.481,10.481,0,0,1-3.322-.577,10.181,10.181,0,0,1-3.051-1.626l1.487-2.4a8.333,8.333,0,0,0,4.969,1.932,2.588,2.588,0,0,0,1.654-.479,1.5,1.5,0,0,0,.6-1.23q0-1.1-2.926-1.988c-.146-.055-.257-.09-.334-.111q-4.576-1.24-4.579-4.142a3.914,3.914,0,0,1,1.584-3.266,6.541,6.541,0,0,1,4.128-1.23,8.57,8.57,0,0,1,4.8,1.487l-1.16,2.293a6.912,6.912,0,0,0-3.892-1.188,3.5,3.5,0,0,0-1.793.4,1.3,1.3,0,0,0-.688,1.2,1.1,1.1,0,0,0,.716,1.049,6.839,6.839,0,0,0,1.39.466c.6.146,1.126.292,1.584.445s.9.313,1.341.493a9,9,0,0,1,1.4.771,3.444,3.444,0,0,1,1.494,3.086Zm-69.917,13.412v16.3H854.8v-16.3h-5.851v-2.981h14.955v2.981Zm16.636,4.524a4.089,4.089,0,0,0-3.447,1.487,6.36,6.36,0,0,0-1.16,4v6.289H867V543.488h3.092v2.953a6.421,6.421,0,0,1,2.029-2.266,4.879,4.879,0,0,1,2.717-.91l.028,3.12Zm6.345,11.779h-3.092V543.488h3.092v14.677Zm-2.9-17.6a1.88,1.88,0,0,1-.577-1.383,1.907,1.907,0,0,1,.577-1.383,1.88,1.88,0,0,1,1.383-.577,1.907,1.907,0,0,1,1.383.577,1.88,1.88,0,0,1,.577,1.383,1.907,1.907,0,0,1-.577,1.383,1.946,1.946,0,0,1-2.766,0Zm13.878,17.825a7.392,7.392,0,0,1-5.268-2.085,7.142,7.142,0,0,1-2.21-5.448,7.058,7.058,0,0,1,2.307-5.476,8.024,8.024,0,0,1,5.615-2.112,7.613,7.613,0,0,1,5.6,2.293l-1.821,2.238a5.863,5.863,0,0,0-3.836-1.654,4.836,4.836,0,0,0-3.35,1.286,4.259,4.259,0,0,0-1.418,3.308,4.794,4.794,0,0,0,4.865,4.837,5.386,5.386,0,0,0,3.878-1.876l1.821,1.987a8.458,8.458,0,0,1-6.185,2.7Zm12.515-4.093a4.784,4.784,0,0,0,6.644,0,5.216,5.216,0,0,0,0-6.922,4.784,4.784,0,0,0-6.644,0,5.216,5.216,0,0,0,0,6.922Zm8.84,1.9a8.03,8.03,0,0,1-11.036,0,7.617,7.617,0,0,1,0-10.73,8.03,8.03,0,0,1,11.036,0,7.617,7.617,0,0,1,0,10.73Zm9.3-10.222v7.45a2.4,2.4,0,0,0,.549,1.668,1.946,1.946,0,0,0,1.543.619,2.622,2.622,0,0,0,1.9-.966l1.272,2.182a5.272,5.272,0,0,1-3.6,1.459,4.627,4.627,0,0,1-3.364-1.369,4.915,4.915,0,0,1-1.39-3.683v-7.366h-1.848v-2.481h1.848v-4.607h3.093v4.607h3.864v2.481h-3.871Z" transform="translate(-36.969 -4.042)"/>
  </g>
</svg>
